<svg xmlns="http://www.w3.org/2000/svg" viewBox="0 0 438.67 418.25"><defs><style>.cls-1{font-size:87.09px;}.cls-1,.cls-5,.cls-6{fill:#3e2a24;}.cls-1,.cls-6{font-family:Arial-BoldMT, Arial;font-weight:700;}.cls-2{fill:#193f76;}.cls-3,.cls-4{fill:#9d7b1a;}.cls-4{letter-spacing:-0.07em;}.cls-6{font-size:29.08px;letter-spacing:0.2em;}</style></defs><g id="Layer_1" data-name="Layer 1"><text class="cls-1" transform="translate(0 377.42) scale(0.83 1)">BOOK<tspan class="cls-2" x="261.26" y="0"> </tspan><tspan class="cls-3" x="285.46" y="0">M</tspan><tspan class="cls-4" x="358" y="0">A</tspan><tspan class="cls-3" x="414.43" y="0">TE</tspan></text><path class="cls-3" d="M582.36,67.1V258.92L545.82,279l.91-146.15-71.49,40.19h0q-16.91-10.45-33.83-20.89h0Z" transform="translate(-225.35 -63.44)"/><path class="cls-5" d="M524.81,237l-32.89,17.37,32.89,21.91v18.27L442.6,343.87,298.28,258.92V258l36.53-20.08L437.23,300l27.29-16.43L356.74,217.82v-40.2l98.65,57.55L481,218.73,334.81,132.87V86.22l26.49,16.5q19.2,11.85,38.39,23.7l41.71,25.75q16.92,10.44,33.83,20.89h0q24.79,15.28,49.57,30.6Z" transform="translate(-225.35 -63.44)"/><path class="cls-5" d="M443.61,348.05,318.76,276.8,294.1,292.33S327.32,286.85,443.61,348.05Z" transform="translate(-225.35 -63.44)"/><path class="cls-3" d="M311.65,297.81s55.92,10.05,128.89,50.24c0,0-110.63-42.93-138.94-35.62Z" transform="translate(-225.35 -63.44)"/><path class="cls-5" d="M441.4,348.05,566.25,276.8l24.67,15.53S557.69,286.85,441.4,348.05Z" transform="translate(-225.35 -63.44)"/><path class="cls-3" d="M573.37,297.81s-55.93,10.05-128.9,50.24c0,0,110.63-42.93,138.95-35.62Z" transform="translate(-225.35 -63.44)"/><polygon class="cls-3" points="109.47 22.77 109.47 174.47 72.93 194.56 72.93 0 109.47 22.77"/><text class="cls-6" transform="translate(2.92 407.31) scale(0.83 1)">Digital Reading Companion</text></g></svg>