<svg xmlns="http://www.w3.org/2000/svg" viewBox="0 0 670.81 199.68"><defs><style>.cls-1{font-size:87.09px;}.cls-1,.cls-5,.cls-6{fill:#3e2a24;}.cls-1,.cls-6{font-family:Arial-BoldMT, Arial;font-weight:700;}.cls-2{fill:#193f76;}.cls-3,.cls-4{fill:#9d7b1a;}.cls-4{letter-spacing:-0.07em;}.cls-6{font-size:29.08px;letter-spacing:0.2em;}</style></defs><g id="Layer_1" data-name="Layer 1"><text class="cls-1" transform="translate(229.57 107.61) scale(0.83 1)">BOOK<tspan class="cls-2" x="261.26" y="0"> </tspan><tspan class="cls-3" x="285.46" y="0">M</tspan><tspan class="cls-4" x="358" y="0">A</tspan><tspan class="cls-3" x="414.43" y="0">TE</tspan></text><path class="cls-3" d="M317.22,180.46V315l-25.63,14.1.63-102.54-50.15,28.19h0l-23.74-14.65h0Z" transform="translate(-114.97 -177.89)"/><path class="cls-5" d="M276.84,299.66l-23.07,12.19,23.07,15.36V340l-57.67,34.61L117.91,315v-.65l25.63-14.09,71.85,43.58,19.16-11.54L158.92,286.2V258l69.22,40.38,17.94-11.54L143.54,226.6V193.87l18.59,11.58q13.47,8.31,26.93,16.63l29.26,18.06,23.74,14.65h0l34.77,21.48Z" transform="translate(-114.97 -177.89)"/><path class="cls-5" d="M219.88,377.57l-87.6-50L115,338.48S138.28,334.63,219.88,377.57Z" transform="translate(-114.97 -177.89)"/><path class="cls-3" d="M127.29,342.32s39.23,7.05,90.43,35.25c0,0-77.62-30.12-97.48-25Z" transform="translate(-114.97 -177.89)"/><path class="cls-5" d="M218.32,377.57l87.6-50,17.31,10.9S299.92,334.63,218.32,377.57Z" transform="translate(-114.97 -177.89)"/><path class="cls-3" d="M310.91,342.32s-39.23,7.05-90.43,35.25c0,0,77.62-30.12,97.48-25Z" transform="translate(-114.97 -177.89)"/><polygon class="cls-3" points="28.57 15.98 28.57 122.41 2.94 136.5 2.94 0 28.57 15.98"/><text class="cls-6" transform="translate(235.07 136.51) scale(0.83 1)">Digital Reading Companion</text></g></svg>