<svg width="714" height="200" viewBox="0 0 714 200" fill="none" xmlns="http://www.w3.org/2000/svg">
<path d="M200.25 135.928L178.641 147.816L179.25 48.6823L179.271 45.2396L176.27 46.9266L127.147 74.5391L107.2 62.2297L200.25 6.11183V135.928Z" fill="#9D7B1A" stroke="#EAE5E5" stroke-width="4"/>
<path d="M137.692 135.625L159.87 150.391V160.978L104.19 194.393L6.41244 136.833L28.5208 124.679L99.3828 167.66L100.416 168.287L101.452 167.663L120.612 156.123L123.439 154.42L120.621 152.702L45.95 107.187V83.5921L112.162 122.218L113.221 122.835L114.252 122.172L132.192 110.632L134.927 108.873L132.123 107.226L30.57 47.5654V19.5821L46.1025 29.2576L46.1099 29.2621C55.0894 34.8018 64.0656 40.3449 73.0384 45.8912L73.0395 45.8919L102.3 63.9519L102.3 63.952L126.039 78.6015L126.04 78.602L159.86 99.4956L159.869 120.565L137.866 132.192L134.894 133.762L137.692 135.625Z" fill="#3E2A24" stroke="#EAE5E5" stroke-width="4"/>
<path d="M104.91 199.68L17.31 149.68L0.0300293 160.59C0.0300293 160.59 23.31 156.74 104.91 199.68Z" fill="#3E2A24"/>
<path d="M12.7735 165.535C13.0563 165.591 13.4326 165.668 13.8989 165.766C15.0613 166.012 16.783 166.395 19.0108 166.943C23.4666 168.039 29.9464 169.795 38.0249 172.431C51.2409 176.742 68.7328 183.407 88.6386 193.388C81.2787 190.749 71.7791 187.461 61.7578 184.306C50.8004 180.857 39.2005 177.561 29.0842 175.447C24.0265 174.391 19.3218 173.626 15.2432 173.288C12.324 173.046 9.68531 173.018 7.44975 173.275L12.7735 165.535Z" fill="#9D7B1A" stroke="#EAE5E5" stroke-width="2"/>
<path d="M204.74 159.545C204.29 159.571 203.795 159.606 203.253 159.655C199.723 159.972 194.2 160.847 186.14 163.063C174.632 166.228 157.936 172.132 134.463 183.073L190.925 150.846L204.74 159.545Z" fill="#3E2A24" stroke="#EAE5E5" stroke-width="2"/>
<path d="M200.81 173.275C198.575 173.018 195.936 173.046 193.017 173.288C188.938 173.626 184.234 174.391 179.176 175.447C169.06 177.561 157.46 180.857 146.502 184.306C136.481 187.461 126.981 190.749 119.621 193.388C139.527 183.407 157.019 176.742 170.235 172.431C178.314 169.795 184.793 168.039 189.249 166.943C191.477 166.395 193.199 166.012 194.361 165.766C194.827 165.668 195.204 165.591 195.487 165.535L200.81 173.275Z" fill="#9D7B1A" stroke="#EAE5E5" stroke-width="2"/>
<path d="M4.94 3.60387L26.57 17.0899V121.227L4.94 133.118V3.60387Z" fill="#9D7B1A" stroke="#EAE5E5" stroke-width="4"/>
<path d="M241.046 58.2048H263.748C268.242 58.2048 271.587 58.3985 273.782 58.786C276.003 59.1476 277.979 59.9224 279.71 61.1105C281.466 62.2985 282.925 63.8869 284.088 65.8757C285.25 67.8386 285.831 70.0469 285.831 72.5005C285.831 75.1607 285.108 77.6015 283.661 79.8226C282.241 82.0438 280.304 83.7097 277.85 84.8203C281.311 85.8276 283.971 87.5451 285.831 89.9729C287.69 92.4007 288.62 95.2547 288.62 98.5348C288.62 101.118 288.013 103.636 286.799 106.089C285.611 108.517 283.971 110.467 281.879 111.939C279.813 113.386 277.256 114.277 274.208 114.613C272.297 114.819 267.687 114.948 260.378 115H241.046V58.2048ZM252.513 67.6578V80.7912H260.029C264.497 80.7912 267.274 80.7266 268.358 80.5975C270.321 80.365 271.858 79.6935 272.969 78.5829C274.105 77.4465 274.673 75.9614 274.673 74.1276C274.673 72.3713 274.183 70.9508 273.201 69.8661C272.246 68.7555 270.812 68.0839 268.901 67.8515C267.764 67.7224 264.497 67.6578 259.099 67.6578H252.513ZM252.513 90.2441V105.431H263.128C267.261 105.431 269.882 105.315 270.993 105.082C272.697 104.772 274.079 104.023 275.138 102.835C276.223 101.621 276.765 100.007 276.765 97.9924C276.765 96.2878 276.352 94.8415 275.526 93.6534C274.699 92.4653 273.498 91.6001 271.923 91.0577C270.373 90.5153 266.99 90.2441 261.772 90.2441H252.513ZM296.02 86.9511C296.02 81.1657 296.885 76.3101 298.616 72.3843C299.907 69.4916 301.663 66.8959 303.884 64.5972C306.131 62.2985 308.585 60.5939 311.245 59.4833C314.784 57.9853 318.865 57.2363 323.488 57.2363C331.856 57.2363 338.545 59.832 343.556 65.0234C348.592 70.2147 351.11 77.4336 351.11 86.6799C351.11 95.8487 348.618 103.029 343.633 108.22C338.649 113.386 331.985 115.969 323.643 115.969C315.197 115.969 308.482 113.399 303.497 108.259C298.512 103.093 296.02 95.9908 296.02 86.9511ZM307.836 86.5637C307.836 92.9948 309.321 97.8762 312.291 101.208C315.262 104.514 319.032 106.167 323.604 106.167C328.175 106.167 331.92 104.527 334.839 101.247C337.783 97.9408 339.256 92.9948 339.256 86.4087C339.256 79.9001 337.822 75.0445 334.955 71.8419C332.114 68.6392 328.33 67.0379 323.604 67.0379C318.877 67.0379 315.068 68.6651 312.175 71.9194C309.282 75.1478 307.836 80.0293 307.836 86.5637ZM357.774 86.9511C357.774 81.1657 358.639 76.3101 360.37 72.3843C361.661 69.4916 363.417 66.8959 365.639 64.5972C367.886 62.2985 370.339 60.5939 372.999 59.4833C376.538 57.9853 380.619 57.2363 385.242 57.2363C393.61 57.2363 400.299 59.832 405.31 65.0234C410.346 70.2147 412.865 77.4336 412.865 86.6799C412.865 95.8487 410.372 103.029 405.387 108.22C400.403 113.386 393.739 115.969 385.397 115.969C376.951 115.969 370.236 113.399 365.251 108.259C360.266 103.093 357.774 95.9908 357.774 86.9511ZM369.59 86.5637C369.59 92.9948 371.075 97.8762 374.045 101.208C377.016 104.514 380.787 106.167 385.358 106.167C389.93 106.167 393.675 104.527 396.593 101.247C399.537 97.9408 401.01 92.9948 401.01 86.4087C401.01 79.9001 399.576 75.0445 396.709 71.8419C393.868 68.6392 390.084 67.0379 385.358 67.0379C380.632 67.0379 376.822 68.6651 373.929 71.9194C371.037 75.1478 369.59 80.0293 369.59 86.5637ZM422.008 115V58.2048H433.475V83.4256L456.643 58.2048H472.062L450.676 80.3263L473.224 115H458.386L442.773 88.3458L433.475 97.8375V115H422.008Z" fill="#3E2A24"/>
<path d="M479.584 115V52.6592H498.422L509.733 95.1836L520.917 52.6592H539.798V115H528.104V65.9268L515.729 115H503.61L491.278 65.9268V115H479.584ZM608.518 115H594.825L589.382 100.839H564.462L559.317 115H545.964L570.246 52.6592H583.556L608.518 115ZM585.342 90.3358L576.752 67.2026L568.332 90.3358H585.342ZM622.806 115V63.2053H604.308V52.6592H653.849V63.2053H635.393V115H622.806ZM662.013 115V52.6592H708.237V63.2053H674.601V77.0257H705.899V87.5292H674.601V104.496H709.428V115H662.013Z" fill="#9D7B1A"/>
<path d="M241.046 58.2048V56.2048H239.046V58.2048H241.046ZM273.782 58.786L273.435 60.7555L273.448 60.7578L273.461 60.76L273.782 58.786ZM279.71 61.1105L278.578 62.7593L278.589 62.767L279.71 61.1105ZM284.088 65.8757L282.361 66.8848L282.367 66.8947L284.088 65.8757ZM283.661 79.8226L281.985 78.7313L281.981 78.7382L281.976 78.7451L283.661 79.8226ZM277.85 84.8203L277.025 82.9983L272.097 85.2289L277.291 86.7406L277.85 84.8203ZM286.799 106.089L285.007 105.203L285.003 105.21L286.799 106.089ZM281.879 111.939L283.026 113.578L283.03 113.575L281.879 111.939ZM274.208 114.613L274.423 116.601L274.427 116.601L274.208 114.613ZM260.378 115V117L260.392 117L260.378 115ZM241.046 115H239.046V117H241.046V115ZM252.513 67.6578V65.6578H250.513V67.6578H252.513ZM252.513 80.7912H250.513V82.7912H252.513V80.7912ZM268.358 80.5975L268.123 78.6114L268.122 78.6115L268.358 80.5975ZM273.201 69.8661L271.685 71.1705L271.701 71.1894L271.718 71.2079L273.201 69.8661ZM268.901 67.8515L269.142 65.8661L269.134 65.8652L269.127 65.8643L268.901 67.8515ZM252.513 90.2441V88.2441H250.513V90.2441H252.513ZM252.513 105.431H250.513V107.431H252.513V105.431ZM270.993 105.082L270.635 103.114L270.609 103.119L270.583 103.125L270.993 105.082ZM275.138 102.835L273.647 101.502L273.645 101.504L275.138 102.835ZM271.923 91.0577L271.262 92.9454L271.272 92.9488L271.923 91.0577ZM241.046 60.2048H263.748V56.2048H241.046V60.2048ZM263.748 60.2048C268.218 60.2048 271.419 60.3998 273.435 60.7555L274.13 56.8164C271.755 56.3973 268.267 56.2048 263.748 56.2048V60.2048ZM273.461 60.76C275.413 61.0777 277.107 61.7498 278.578 62.7593L280.842 59.4617C278.851 58.0949 276.594 57.2174 274.104 56.812L273.461 60.76ZM278.589 62.767C280.077 63.7733 281.336 65.1319 282.361 66.8848L285.814 64.8665C284.514 62.642 282.855 60.8238 280.83 59.4539L278.589 62.767ZM282.367 66.8947C283.332 68.5258 283.831 70.3773 283.831 72.5005H287.831C287.831 69.7164 287.167 67.1514 285.808 64.8567L282.367 66.8947ZM283.831 72.5005C283.831 74.7748 283.219 76.8361 281.985 78.7313L285.337 80.914C286.996 78.3668 287.831 75.5467 287.831 72.5005H283.831ZM281.976 78.7451C280.769 80.6327 279.134 82.0437 277.025 82.9983L278.675 86.6424C281.473 85.3757 283.712 83.4549 285.346 80.9002L281.976 78.7451ZM277.291 86.7406C280.418 87.6508 282.687 89.1571 284.243 91.1891L287.419 88.7568C285.256 85.9332 282.204 84.0044 278.409 82.9L277.291 86.7406ZM284.243 91.1891C285.815 93.2418 286.62 95.6604 286.62 98.5348H290.62C290.62 94.849 289.566 91.5597 287.419 88.7568L284.243 91.1891ZM286.62 98.5348C286.62 100.792 286.093 103.008 285.007 105.203L288.592 106.976C289.934 104.264 290.62 101.444 290.62 98.5348H286.62ZM285.003 105.21C283.954 107.353 282.529 109.036 280.728 110.304L283.03 113.575C285.413 111.898 287.268 109.681 288.596 106.969L285.003 105.21ZM280.732 110.301C278.995 111.517 276.775 112.318 273.989 112.625L274.427 116.601C277.737 116.236 280.631 115.254 283.026 113.578L280.732 110.301ZM273.993 112.624C272.204 112.818 267.707 112.948 260.364 113L260.392 117C267.667 116.949 272.39 116.821 274.423 116.601L273.993 112.624ZM260.378 113H241.046V117H260.378V113ZM243.046 115V58.2048H239.046V115H243.046ZM250.513 67.6578V80.7912H254.513V67.6578H250.513ZM252.513 82.7912H260.029V78.7912H252.513V82.7912ZM260.029 82.7912C264.451 82.7912 267.365 82.7298 268.595 82.5835L268.122 78.6115C267.182 78.7234 264.543 78.7912 260.029 78.7912V82.7912ZM268.594 82.5836C270.885 82.3122 272.88 81.5 274.383 79.9971L271.554 77.1687C270.836 77.8871 269.758 78.4178 268.123 78.6114L268.594 82.5836ZM274.383 79.9971C275.948 78.4318 276.673 76.4105 276.673 74.1276H272.673C272.673 75.5123 272.262 76.4612 271.554 77.1687L274.383 79.9971ZM276.673 74.1276C276.673 71.9803 276.063 70.0477 274.684 68.5242L271.718 71.2079C272.303 71.854 272.673 72.7624 272.673 74.1276H276.673ZM274.717 68.5616C273.345 66.967 271.389 66.1394 269.142 65.8661L268.659 69.8369C270.235 70.0285 271.146 70.5439 271.685 71.1705L274.717 68.5616ZM269.127 65.8643C267.849 65.7191 264.442 65.6578 259.099 65.6578V69.6578C264.552 69.6578 267.679 69.7256 268.675 69.8387L269.127 65.8643ZM259.099 65.6578H252.513V69.6578H259.099V65.6578ZM250.513 90.2441V105.431H254.513V90.2441H250.513ZM252.513 107.431H263.128V103.431H252.513V107.431ZM263.128 107.431C267.196 107.431 270.047 107.324 271.403 107.04L270.583 103.125C269.718 103.306 267.326 103.431 263.128 103.431V107.431ZM271.351 107.05C273.453 106.668 275.249 105.717 276.631 104.166L273.645 101.504C272.91 102.329 271.942 102.877 270.635 103.114L271.351 107.05ZM276.63 104.168C278.115 102.506 278.765 100.377 278.765 97.9924H274.765C274.765 99.637 274.331 100.737 273.647 101.502L276.63 104.168ZM278.765 97.9924C278.765 95.9539 278.266 94.0909 277.167 92.5113L273.884 94.7955C274.438 95.592 274.765 96.6217 274.765 97.9924H278.765ZM277.167 92.5113C276.063 90.9237 274.487 89.8255 272.574 89.1666L271.272 92.9488C272.509 93.3747 273.335 94.0069 273.884 94.7955L277.167 92.5113ZM272.583 89.17C271.553 88.8093 270.104 88.5919 268.383 88.4539C266.618 88.3124 264.409 88.2441 261.772 88.2441V92.2441C264.353 92.2441 266.445 92.3114 268.063 92.4411C269.725 92.5743 270.743 92.7638 271.262 92.9454L272.583 89.17ZM261.772 88.2441H252.513V92.2441H261.772V88.2441ZM298.616 72.3843L296.789 71.569L296.786 71.5776L298.616 72.3843ZM303.884 64.5972L302.454 63.1991L302.446 63.2074L303.884 64.5972ZM311.245 59.4833L312.016 61.329L312.025 61.3251L311.245 59.4833ZM343.556 65.0234L342.117 66.4123L342.12 66.416L343.556 65.0234ZM343.633 108.22L345.073 109.609L345.076 109.605L343.633 108.22ZM303.497 108.259L302.058 109.648L302.061 109.651L303.497 108.259ZM312.291 101.208L310.798 102.539L310.804 102.545L312.291 101.208ZM334.839 101.247L333.345 99.9166L333.345 99.9173L334.839 101.247ZM334.955 71.8419L333.459 73.1691L333.465 73.1758L334.955 71.8419ZM312.175 71.9194L313.665 73.254L313.67 73.2481L312.175 71.9194ZM298.02 86.9511C298.02 81.352 298.859 76.7905 300.446 73.1909L296.786 71.5776C294.911 75.8297 294.02 80.9794 294.02 86.9511H298.02ZM300.442 73.1996C301.637 70.5214 303.262 68.1197 305.323 65.987L302.446 63.2074C300.065 65.672 298.177 68.4617 296.789 71.569L300.442 73.1996ZM305.315 65.9953C307.396 63.8664 309.63 62.3248 312.016 61.3289L310.475 57.6377C307.54 58.863 304.867 60.7307 302.454 63.1992L305.315 65.9953ZM312.025 61.3251C315.272 59.9504 319.079 59.2363 323.488 59.2363V55.2363C318.65 55.2363 314.295 56.0202 310.466 57.6416L312.025 61.3251ZM323.488 59.2363C331.408 59.2363 337.544 61.6745 342.117 66.4123L344.995 63.6344C339.547 57.9895 332.304 55.2363 323.488 55.2363V59.2363ZM342.12 66.416C346.702 71.1383 349.11 77.8025 349.11 86.6799H353.11C353.11 77.0647 350.483 69.2912 344.991 63.6307L342.12 66.416ZM349.11 86.6799C349.11 95.4799 346.727 102.11 342.191 106.835L345.076 109.605C350.509 103.947 353.11 96.2176 353.11 86.6799H349.11ZM342.194 106.831C337.648 111.543 331.538 113.969 323.643 113.969V117.969C332.432 117.969 339.649 115.229 345.073 109.609L342.194 106.831ZM323.643 113.969C315.633 113.969 309.473 111.548 304.933 106.867L302.061 109.651C307.49 115.249 314.761 117.969 323.643 117.969V113.969ZM304.936 106.87C300.398 102.168 298.02 95.6135 298.02 86.9511H294.02C294.02 96.3681 296.626 104.019 302.058 109.648L304.936 106.87ZM305.836 86.5637C305.836 93.272 307.383 98.7077 310.798 102.539L313.784 99.8771C311.259 97.0448 309.836 92.7175 309.836 86.5637H305.836ZM310.804 102.545C314.165 106.286 318.483 108.167 323.604 108.167V104.167C319.581 104.167 316.358 102.742 313.779 99.8714L310.804 102.545ZM323.604 108.167C328.72 108.167 333.018 106.302 336.333 102.576L333.345 99.9173C330.823 102.751 327.631 104.167 323.604 104.167V108.167ZM336.333 102.577C339.731 98.7616 341.256 93.2521 341.256 86.4087H337.256C337.256 92.7375 335.836 97.12 333.345 99.9166L336.333 102.577ZM341.256 86.4087C341.256 79.6531 339.774 74.2262 336.445 70.5079L333.465 73.1758C335.87 75.8629 337.256 80.1472 337.256 86.4087H341.256ZM336.451 70.5146C333.189 66.8367 328.836 65.0379 323.604 65.0379V69.0379C327.825 69.0379 331.04 70.4418 333.459 73.1691L336.451 70.5146ZM323.604 65.0379C318.361 65.0379 313.988 66.87 310.68 70.5906L313.67 73.2481C316.148 70.4602 319.394 69.0379 323.604 69.0379V65.0379ZM310.686 70.5847C307.332 74.3275 305.836 79.7793 305.836 86.5637H309.836C309.836 80.2792 311.233 75.9681 313.665 73.254L310.686 70.5847ZM360.37 72.3843L358.543 71.569L358.54 71.5776L360.37 72.3843ZM365.639 64.5972L364.208 63.1991L364.2 63.2074L365.639 64.5972ZM372.999 59.4833L373.77 61.329L373.779 61.3251L372.999 59.4833ZM405.31 65.0234L403.871 66.4123L403.874 66.416L405.31 65.0234ZM405.387 108.22L406.827 109.609L406.83 109.605L405.387 108.22ZM365.251 108.259L363.812 109.648L363.815 109.651L365.251 108.259ZM374.045 101.208L372.553 102.539L372.558 102.545L374.045 101.208ZM396.593 101.247L395.1 99.9166L395.099 99.9173L396.593 101.247ZM396.709 71.8419L395.213 73.1691L395.219 73.1758L396.709 71.8419ZM373.929 71.9194L375.419 73.254L375.424 73.2481L373.929 71.9194ZM359.774 86.9511C359.774 81.352 360.613 76.7905 362.2 73.1909L358.54 71.5776C356.665 75.8297 355.774 80.9794 355.774 86.9511H359.774ZM362.196 73.1996C363.392 70.5214 365.016 68.1197 367.077 65.987L364.2 63.2074C361.819 65.672 359.931 68.4617 358.543 71.569L362.196 73.1996ZM367.069 65.9953C369.15 63.8664 371.384 62.3248 373.77 61.3289L372.229 57.6377C369.294 58.863 366.621 60.7307 364.208 63.1992L367.069 65.9953ZM373.779 61.3251C377.026 59.9504 380.833 59.2363 385.242 59.2363V55.2363C380.404 55.2363 376.05 56.0202 372.22 57.6416L373.779 61.3251ZM385.242 59.2363C393.162 59.2363 399.298 61.6745 403.871 66.4123L406.749 63.6344C401.301 57.9895 394.058 55.2363 385.242 55.2363V59.2363ZM403.874 66.416C408.456 71.1383 410.865 77.8025 410.865 86.6799H414.865C414.865 77.0647 412.237 69.2912 406.745 63.6307L403.874 66.416ZM410.865 86.6799C410.865 95.4799 408.481 102.11 403.945 106.835L406.83 109.605C412.263 103.947 414.865 96.2176 414.865 86.6799H410.865ZM403.948 106.831C399.402 111.543 393.292 113.969 385.397 113.969V117.969C394.186 117.969 401.403 115.229 406.827 109.609L403.948 106.831ZM385.397 113.969C377.387 113.969 371.228 111.548 366.687 106.867L363.815 109.651C369.244 115.249 376.515 117.969 385.397 117.969V113.969ZM366.69 106.87C362.152 102.168 359.774 95.6135 359.774 86.9511H355.774C355.774 96.3681 358.38 104.019 363.812 109.648L366.69 106.87ZM367.59 86.5637C367.59 93.272 369.137 98.7077 372.553 102.539L375.538 99.8771C373.013 97.0448 371.59 92.7175 371.59 86.5637H367.59ZM372.558 102.545C375.919 106.286 380.237 108.167 385.358 108.167V104.167C381.336 104.167 378.112 102.742 375.533 99.8714L372.558 102.545ZM385.358 108.167C390.474 108.167 394.772 106.302 398.087 102.576L395.099 99.9173C392.577 102.751 389.385 104.167 385.358 104.167V108.167ZM398.087 102.577C401.485 98.7616 403.01 93.2521 403.01 86.4087H399.01C399.01 92.7375 397.59 97.12 395.1 99.9166L398.087 102.577ZM403.01 86.4087C403.01 79.6531 401.528 74.2262 398.199 70.5079L395.219 73.1758C397.624 75.8629 399.01 80.1472 399.01 86.4087H403.01ZM398.205 70.5146C394.943 66.8367 390.59 65.0379 385.358 65.0379V69.0379C389.579 69.0379 392.794 70.4418 395.213 73.1691L398.205 70.5146ZM385.358 65.0379C380.115 65.0379 375.742 66.87 372.434 70.5906L375.424 73.2481C377.902 70.4602 381.148 69.0379 385.358 69.0379V65.0379ZM372.44 70.5847C369.086 74.3275 367.59 79.7793 367.59 86.5637H371.59C371.59 80.2792 372.987 75.9681 375.419 73.254L372.44 70.5847ZM422.008 115H420.008V117H422.008V115ZM422.008 58.2048V56.2048H420.008V58.2048H422.008ZM433.475 58.2048H435.475V56.2048H433.475V58.2048ZM433.475 83.4256H431.475V88.5593L434.948 84.7786L433.475 83.4256ZM456.643 58.2048V56.2048H455.764L455.17 56.8519L456.643 58.2048ZM472.062 58.2048L473.5 59.5949L476.777 56.2048H472.062V58.2048ZM450.676 80.3263L449.238 78.9362L448.131 80.0813L449 81.4166L450.676 80.3263ZM473.224 115V117H476.91L474.901 113.91L473.224 115ZM458.386 115L456.66 116.011L457.24 117H458.386V115ZM442.773 88.3458L444.499 87.3349L443.176 85.0765L441.344 86.9462L442.773 88.3458ZM433.475 97.8375L432.046 96.4379L431.475 97.0211V97.8375H433.475ZM433.475 115V117H435.475V115H433.475ZM424.008 115V58.2048H420.008V115H424.008ZM422.008 60.2048H433.475V56.2048H422.008V60.2048ZM431.475 58.2048V83.4256H435.475V58.2048H431.475ZM434.948 84.7786L458.115 59.5578L455.17 56.8519L432.002 82.0726L434.948 84.7786ZM456.643 60.2048H472.062V56.2048H456.643V60.2048ZM470.624 56.8148L449.238 78.9362L452.114 81.7164L473.5 59.5949L470.624 56.8148ZM449 81.4166L471.547 116.09L474.901 113.91L452.353 79.236L449 81.4166ZM473.224 113H458.386V117H473.224V113ZM460.112 113.989L444.499 87.3349L441.047 89.3567L456.66 116.011L460.112 113.989ZM441.344 86.9462L432.046 96.4379L434.904 99.237L444.202 89.7454L441.344 86.9462ZM431.475 97.8375V115H435.475V97.8375H431.475ZM433.475 113H422.008V117H433.475V113ZM479.584 115H477.584V117H479.584V115ZM479.584 52.6592V50.6592H477.584V52.6592H479.584ZM498.422 52.6592L500.355 52.1451L499.96 50.6592H498.422V52.6592ZM509.733 95.1836L507.801 95.6977L509.744 103.005L511.668 95.6923L509.733 95.1836ZM520.917 52.6592V50.6592H519.375L518.983 52.1505L520.917 52.6592ZM539.798 52.6592H541.798V50.6592H539.798V52.6592ZM539.798 115V117H541.798V115H539.798ZM528.104 115H526.104V117H528.104V115ZM528.104 65.9268H530.104L526.165 65.4378L528.104 65.9268ZM515.729 115V117H517.288L517.669 115.489L515.729 115ZM503.61 115L501.67 115.487L502.05 117H503.61V115ZM491.278 65.9268L493.218 65.4394L489.278 65.9268H491.278ZM491.278 115V117H493.278V115H491.278ZM481.584 115V52.6592H477.584V115H481.584ZM479.584 54.6592H498.422V50.6592H479.584V54.6592ZM496.489 53.1733L507.801 95.6977L511.666 94.6695L500.355 52.1451L496.489 53.1733ZM511.668 95.6923L522.852 53.1679L518.983 52.1505L507.799 94.6749L511.668 95.6923ZM520.917 54.6592H539.798V50.6592H520.917V54.6592ZM537.798 52.6592V115H541.798V52.6592H537.798ZM539.798 113H528.104V117H539.798V113ZM530.104 115V65.9268H526.104V115H530.104ZM526.165 65.4378L513.79 114.511L517.669 115.489L530.043 66.4159L526.165 65.4378ZM515.729 113H503.61V117H515.729V113ZM505.55 114.513L493.218 65.4394L489.338 66.4143L501.67 115.487L505.55 114.513ZM489.278 65.9268V115H493.278V65.9268H489.278ZM491.278 113H479.584V117H491.278V113ZM608.518 115V117H611.473L610.374 114.257L608.518 115ZM594.825 115L592.958 115.718L593.451 117H594.825V115ZM589.382 100.839L591.249 100.122L590.756 98.8394H589.382V100.839ZM564.462 100.839V98.8394H563.061L562.583 100.156L564.462 100.839ZM559.317 115V117H560.718L561.197 115.683L559.317 115ZM545.964 115L544.101 114.274L543.039 117H545.964V115ZM570.246 52.6592V50.6592H568.878L568.382 51.9333L570.246 52.6592ZM583.556 52.6592L585.413 51.9158L584.909 50.6592H583.556V52.6592ZM585.342 90.3358V92.3358H588.218L587.217 89.6396L585.342 90.3358ZM576.752 67.2026L578.627 66.5064L576.733 61.4065L574.873 66.5185L576.752 67.2026ZM568.332 90.3358L566.453 89.6518L565.476 92.3358H568.332V90.3358ZM608.518 113H594.825V117H608.518V113ZM596.692 114.282L591.249 100.122L587.515 101.557L592.958 115.718L596.692 114.282ZM589.382 98.8394H564.462V102.839H589.382V98.8394ZM562.583 100.156L557.437 114.317L561.197 115.683L566.342 101.522L562.583 100.156ZM559.317 113H545.964V117H559.317V113ZM547.828 115.726L572.109 53.3851L568.382 51.9333L544.101 114.274L547.828 115.726ZM570.246 54.6592H583.556V50.6592H570.246V54.6592ZM581.699 53.4026L606.661 115.743L610.374 114.257L585.413 51.9158L581.699 53.4026ZM587.217 89.6396L578.627 66.5064L574.877 67.8988L583.467 91.032L587.217 89.6396ZM574.873 66.5185L566.453 89.6518L570.212 91.0199L578.631 67.8866L574.873 66.5185ZM568.332 92.3358H585.342V88.3358H568.332V92.3358ZM622.806 115H620.806V117H622.806V115ZM622.806 63.2053H624.806V61.2053H622.806V63.2053ZM604.308 63.2053H602.308V65.2053H604.308V63.2053ZM604.308 52.6592V50.6592H602.308V52.6592H604.308ZM653.849 52.6592H655.849V50.6592H653.849V52.6592ZM653.849 63.2053V65.2053H655.849V63.2053H653.849ZM635.393 63.2053V61.2053H633.393V63.2053H635.393ZM635.393 115V117H637.393V115H635.393ZM624.806 115V63.2053H620.806V115H624.806ZM622.806 61.2053H604.308V65.2053H622.806V61.2053ZM606.308 63.2053V52.6592H602.308V63.2053H606.308ZM604.308 54.6592H653.849V50.6592H604.308V54.6592ZM651.849 52.6592V63.2053H655.849V52.6592H651.849ZM653.849 61.2053H635.393V65.2053H653.849V61.2053ZM633.393 63.2053V115H637.393V63.2053H633.393ZM635.393 113H622.806V117H635.393V113ZM662.013 115H660.013V117H662.013V115ZM662.013 52.6592V50.6592H660.013V52.6592H662.013ZM708.237 52.6592H710.237V50.6592H708.237V52.6592ZM708.237 63.2053V65.2053H710.237V63.2053H708.237ZM674.601 63.2053V61.2053H672.601V63.2053H674.601ZM674.601 77.0257H672.601V79.0257H674.601V77.0257ZM705.899 77.0257H707.899V75.0257H705.899V77.0257ZM705.899 87.5292V89.5292H707.899V87.5292H705.899ZM674.601 87.5292V85.5292H672.601V87.5292H674.601ZM674.601 104.496H672.601V106.496H674.601V104.496ZM709.428 104.496H711.428V102.496H709.428V104.496ZM709.428 115V117H711.428V115H709.428ZM664.013 115V52.6592H660.013V115H664.013ZM662.013 54.6592H708.237V50.6592H662.013V54.6592ZM706.237 52.6592V63.2053H710.237V52.6592H706.237ZM708.237 61.2053H674.601V65.2053H708.237V61.2053ZM672.601 63.2053V77.0257H676.601V63.2053H672.601ZM674.601 79.0257H705.899V75.0257H674.601V79.0257ZM703.899 77.0257V87.5292H707.899V77.0257H703.899ZM705.899 85.5292H674.601V89.5292H705.899V85.5292ZM672.601 87.5292V104.496H676.601V87.5292H672.601ZM674.601 106.496H709.428V102.496H674.601V106.496ZM707.428 104.496V115H711.428V104.496H707.428ZM709.428 113H662.013V117H709.428V113Z" fill="#EAE5E5"/>
<path d="M303.317 140.036H310.315C311.893 140.036 313.096 140.156 313.924 140.398C315.037 140.726 315.99 141.308 316.783 142.144C317.576 142.981 318.18 144.007 318.594 145.223C319.008 146.43 319.215 147.922 319.215 149.699C319.215 151.26 319.021 152.605 318.633 153.735C318.159 155.115 317.482 156.232 316.602 157.085C315.938 157.732 315.041 158.237 313.911 158.599C313.066 158.866 311.936 159 310.522 159H303.317V140.036ZM307.146 143.244V155.805H310.005C311.074 155.805 311.846 155.744 312.32 155.624C312.941 155.468 313.454 155.205 313.859 154.835C314.273 154.464 314.61 153.856 314.868 153.011C315.127 152.157 315.257 150.997 315.257 149.531C315.257 148.065 315.127 146.939 314.868 146.154C314.61 145.37 314.248 144.757 313.782 144.318C313.316 143.878 312.725 143.58 312.01 143.425C311.475 143.304 310.427 143.244 308.866 143.244H307.146ZM322.449 143.399V140.036H326.084V143.399H322.449ZM322.449 159V145.262H326.084V159H322.449ZM329.486 159.906L333.639 160.41C333.708 160.893 333.867 161.225 334.117 161.406C334.462 161.665 335.006 161.794 335.747 161.794C336.696 161.794 337.407 161.652 337.882 161.367C338.201 161.178 338.442 160.871 338.606 160.449C338.718 160.147 338.774 159.591 338.774 158.78V156.775C337.688 158.258 336.317 159 334.661 159C332.815 159 331.353 158.22 330.275 156.659C329.43 155.425 329.008 153.89 329.008 152.053C329.008 149.751 329.56 147.991 330.663 146.775C331.776 145.559 333.156 144.951 334.803 144.951C336.502 144.951 337.903 145.697 339.007 147.189V145.262H342.409V157.59C342.409 159.211 342.276 160.423 342.008 161.225C341.741 162.027 341.366 162.657 340.883 163.114C340.4 163.571 339.753 163.929 338.943 164.187C338.141 164.446 337.123 164.575 335.89 164.575C333.561 164.575 331.91 164.174 330.935 163.372C329.961 162.579 329.473 161.57 329.473 160.345C329.473 160.225 329.478 160.078 329.486 159.906ZM332.733 151.846C332.733 153.304 333.014 154.373 333.574 155.054C334.143 155.727 334.842 156.064 335.67 156.064C336.558 156.064 337.308 155.719 337.921 155.029C338.533 154.33 338.839 153.299 338.839 151.937C338.839 150.514 338.546 149.457 337.959 148.768C337.373 148.078 336.631 147.733 335.734 147.733C334.863 147.733 334.143 148.073 333.574 148.755C333.014 149.427 332.733 150.458 332.733 151.846ZM346.019 143.399V140.036H349.654V143.399H346.019ZM346.019 159V145.262H349.654V159H346.019ZM359.692 145.262V148.16H357.208V153.696C357.208 154.817 357.23 155.473 357.273 155.662C357.325 155.844 357.433 155.995 357.596 156.115C357.769 156.236 357.976 156.296 358.217 156.296C358.554 156.296 359.041 156.18 359.679 155.947L359.99 158.767C359.144 159.129 358.187 159.31 357.118 159.31C356.462 159.31 355.872 159.203 355.346 158.987C354.819 158.763 354.431 158.478 354.181 158.133C353.94 157.78 353.772 157.305 353.677 156.71C353.599 156.288 353.56 155.434 353.56 154.149V148.16H351.892V145.262H353.56V142.532L357.208 140.411V145.262H359.692ZM364.931 149.453L361.632 148.858C362.003 147.53 362.642 146.547 363.547 145.909C364.453 145.27 365.798 144.951 367.583 144.951C369.204 144.951 370.412 145.145 371.205 145.534C371.999 145.913 372.555 146.4 372.874 146.995C373.202 147.582 373.366 148.664 373.366 150.242L373.327 154.485C373.327 155.693 373.383 156.585 373.495 157.163C373.616 157.732 373.836 158.345 374.155 159H370.558C370.464 158.759 370.347 158.401 370.209 157.926C370.149 157.711 370.106 157.568 370.08 157.499C369.459 158.103 368.795 158.556 368.088 158.858C367.38 159.16 366.626 159.31 365.824 159.31C364.409 159.31 363.293 158.927 362.473 158.159C361.663 157.392 361.257 156.421 361.257 155.249C361.257 154.472 361.443 153.782 361.814 153.179C362.184 152.566 362.702 152.101 363.366 151.782C364.039 151.454 365.005 151.169 366.264 150.928C367.963 150.609 369.14 150.311 369.795 150.035V149.673C369.795 148.975 369.623 148.479 369.278 148.185C368.933 147.884 368.282 147.733 367.324 147.733C366.678 147.733 366.173 147.862 365.811 148.121C365.449 148.371 365.155 148.815 364.931 149.453ZM369.795 152.403C369.329 152.558 368.592 152.743 367.583 152.959C366.574 153.174 365.914 153.386 365.604 153.593C365.13 153.929 364.892 154.356 364.892 154.873C364.892 155.382 365.082 155.822 365.462 156.193C365.841 156.564 366.324 156.749 366.91 156.749C367.566 156.749 368.191 156.534 368.786 156.102C369.226 155.775 369.515 155.374 369.653 154.899C369.748 154.589 369.795 153.998 369.795 153.127V152.403ZM376.962 159V140.036H380.597V159H376.962ZM391.748 159V140.036H399.807C401.834 140.036 403.304 140.208 404.218 140.553C405.141 140.889 405.878 141.493 406.43 142.364C406.982 143.235 407.258 144.231 407.258 145.352C407.258 146.775 406.84 147.953 406.003 148.884C405.167 149.807 403.916 150.389 402.252 150.63C403.08 151.113 403.761 151.644 404.296 152.221C404.839 152.799 405.568 153.826 406.482 155.3L408.798 159H404.218L401.45 154.873C400.467 153.399 399.794 152.472 399.432 152.092C399.07 151.704 398.686 151.441 398.28 151.303C397.875 151.156 397.233 151.083 396.353 151.083H395.577V159H391.748ZM395.577 148.056H398.41C400.247 148.056 401.394 147.978 401.851 147.823C402.308 147.668 402.666 147.401 402.925 147.021C403.183 146.642 403.313 146.167 403.313 145.598C403.313 144.96 403.14 144.447 402.795 144.059C402.459 143.662 401.98 143.412 401.359 143.309C401.049 143.265 400.117 143.244 398.565 143.244H395.577V148.056ZM418.81 154.628L422.432 155.236C421.966 156.564 421.229 157.577 420.22 158.276C419.22 158.966 417.965 159.31 416.456 159.31C414.067 159.31 412.299 158.53 411.152 156.969C410.246 155.719 409.794 154.14 409.794 152.234C409.794 149.958 410.389 148.177 411.579 146.892C412.769 145.598 414.274 144.951 416.093 144.951C418.137 144.951 419.75 145.628 420.932 146.982C422.113 148.328 422.678 150.393 422.626 153.179H413.519C413.545 154.257 413.838 155.098 414.399 155.701C414.959 156.296 415.658 156.594 416.495 156.594C417.064 156.594 417.542 156.439 417.93 156.128C418.318 155.818 418.612 155.318 418.81 154.628ZM419.017 150.954C418.991 149.902 418.72 149.104 418.202 148.561C417.685 148.009 417.055 147.733 416.313 147.733C415.52 147.733 414.865 148.022 414.347 148.599C413.83 149.177 413.575 149.962 413.584 150.954H419.017ZM428.318 149.453L425.019 148.858C425.39 147.53 426.028 146.547 426.934 145.909C427.839 145.27 429.185 144.951 430.97 144.951C432.591 144.951 433.799 145.145 434.592 145.534C435.386 145.913 435.942 146.4 436.261 146.995C436.589 147.582 436.752 148.664 436.752 150.242L436.714 154.485C436.714 155.693 436.77 156.585 436.882 157.163C437.003 157.732 437.222 158.345 437.542 159H433.945C433.85 158.759 433.734 158.401 433.596 157.926C433.536 157.711 433.493 157.568 433.467 157.499C432.846 158.103 432.182 158.556 431.475 158.858C430.767 159.16 430.013 159.31 429.211 159.31C427.796 159.31 426.68 158.927 425.86 158.159C425.05 157.392 424.644 156.421 424.644 155.249C424.644 154.472 424.83 153.782 425.201 153.179C425.571 152.566 426.089 152.101 426.753 151.782C427.426 151.454 428.391 151.169 429.651 150.928C431.349 150.609 432.527 150.311 433.182 150.035V149.673C433.182 148.975 433.01 148.479 432.665 148.185C432.32 147.884 431.669 147.733 430.711 147.733C430.064 147.733 429.56 147.862 429.198 148.121C428.836 148.371 428.542 148.815 428.318 149.453ZM433.182 152.403C432.716 152.558 431.979 152.743 430.97 152.959C429.961 153.174 429.301 153.386 428.991 153.593C428.516 153.929 428.279 154.356 428.279 154.873C428.279 155.382 428.469 155.822 428.848 156.193C429.228 156.564 429.711 156.749 430.297 156.749C430.953 156.749 431.578 156.534 432.173 156.102C432.613 155.775 432.902 155.374 433.04 154.899C433.135 154.589 433.182 153.998 433.182 153.127V152.403ZM452.948 159H449.572V156.982C449.012 157.767 448.348 158.353 447.58 158.741C446.821 159.121 446.054 159.31 445.277 159.31C443.699 159.31 442.345 158.677 441.215 157.409C440.094 156.132 439.534 154.356 439.534 152.079C439.534 149.751 440.081 147.983 441.177 146.775C442.272 145.559 443.656 144.951 445.329 144.951C446.864 144.951 448.192 145.59 449.313 146.866V140.036H452.948V159ZM443.246 151.833C443.246 153.299 443.449 154.36 443.854 155.016C444.441 155.964 445.26 156.439 446.312 156.439C447.149 156.439 447.86 156.085 448.447 155.378C449.033 154.662 449.326 153.597 449.326 152.183C449.326 150.604 449.042 149.47 448.473 148.78C447.903 148.082 447.175 147.733 446.286 147.733C445.424 147.733 444.7 148.078 444.113 148.768C443.535 149.449 443.246 150.471 443.246 151.833ZM456.545 143.399V140.036H460.18V143.399H456.545ZM456.545 159V145.262H460.18V159H456.545ZM476.415 159H472.78V151.989C472.78 150.505 472.702 149.548 472.547 149.117C472.391 148.677 472.137 148.336 471.783 148.095C471.438 147.853 471.02 147.733 470.529 147.733C469.899 147.733 469.334 147.905 468.834 148.25C468.334 148.595 467.989 149.052 467.799 149.621C467.618 150.191 467.527 151.243 467.527 152.778V159H463.892V145.262H467.269V147.28C468.467 145.728 469.977 144.951 471.796 144.951C472.598 144.951 473.331 145.098 473.995 145.391C474.66 145.676 475.16 146.042 475.496 146.491C475.841 146.939 476.078 147.448 476.208 148.017C476.346 148.586 476.415 149.401 476.415 150.462V159ZM479.778 159.906L483.93 160.41C483.999 160.893 484.159 161.225 484.409 161.406C484.754 161.665 485.297 161.794 486.039 161.794C486.988 161.794 487.699 161.652 488.173 161.367C488.493 161.178 488.734 160.871 488.898 160.449C489.01 160.147 489.066 159.591 489.066 158.78V156.775C487.979 158.258 486.608 159 484.952 159C483.107 159 481.645 158.22 480.567 156.659C479.722 155.425 479.299 153.89 479.299 152.053C479.299 149.751 479.851 147.991 480.955 146.775C482.068 145.559 483.447 144.951 485.095 144.951C486.794 144.951 488.195 145.697 489.299 147.189V145.262H492.701V157.59C492.701 159.211 492.567 160.423 492.3 161.225C492.033 162.027 491.658 162.657 491.175 163.114C490.692 163.571 490.045 163.929 489.234 164.187C488.432 164.446 487.415 164.575 486.181 164.575C483.853 164.575 482.201 164.174 481.227 163.372C480.252 162.579 479.765 161.57 479.765 160.345C479.765 160.225 479.769 160.078 479.778 159.906ZM483.025 151.846C483.025 153.304 483.305 154.373 483.866 155.054C484.435 155.727 485.133 156.064 485.961 156.064C486.85 156.064 487.6 155.719 488.212 155.029C488.825 154.33 489.131 153.299 489.131 151.937C489.131 150.514 488.838 149.457 488.251 148.768C487.665 148.078 486.923 147.733 486.026 147.733C485.155 147.733 484.435 148.073 483.866 148.755C483.305 149.427 483.025 150.458 483.025 151.846ZM515.844 152.027L519.556 153.205C518.987 155.274 518.039 156.814 516.711 157.823C515.391 158.823 513.714 159.323 511.678 159.323C509.16 159.323 507.09 158.465 505.469 156.749C503.848 155.024 503.037 152.67 503.037 149.686C503.037 146.53 503.852 144.08 505.482 142.338C507.112 140.588 509.255 139.712 511.911 139.712C514.231 139.712 516.115 140.398 517.564 141.769C518.427 142.58 519.074 143.744 519.505 145.262L515.714 146.167C515.49 145.184 515.02 144.408 514.304 143.839C513.597 143.27 512.735 142.985 511.717 142.985C510.311 142.985 509.169 143.49 508.289 144.499C507.418 145.508 506.983 147.142 506.983 149.401C506.983 151.799 507.414 153.506 508.276 154.524C509.139 155.542 510.26 156.051 511.64 156.051C512.657 156.051 513.533 155.727 514.266 155.08C514.999 154.434 515.525 153.416 515.844 152.027ZM521.988 151.937C521.988 150.73 522.286 149.561 522.881 148.431C523.476 147.301 524.317 146.439 525.404 145.844C526.499 145.249 527.719 144.951 529.064 144.951C531.143 144.951 532.846 145.628 534.174 146.982C535.502 148.328 536.166 150.031 536.166 152.092C536.166 154.171 535.494 155.895 534.148 157.267C532.812 158.629 531.126 159.31 529.09 159.31C527.831 159.31 526.628 159.026 525.481 158.457C524.343 157.887 523.476 157.055 522.881 155.96C522.286 154.856 521.988 153.515 521.988 151.937ZM525.714 152.131C525.714 153.494 526.037 154.537 526.684 155.261C527.331 155.986 528.129 156.348 529.077 156.348C530.026 156.348 530.819 155.986 531.458 155.261C532.104 154.537 532.428 153.485 532.428 152.105C532.428 150.76 532.104 149.725 531.458 149C530.819 148.276 530.026 147.914 529.077 147.914C528.129 147.914 527.331 148.276 526.684 149C526.037 149.725 525.714 150.768 525.714 152.131ZM538.754 145.262H542.104V147.138C543.303 145.68 544.73 144.951 546.386 144.951C547.266 144.951 548.029 145.132 548.676 145.495C549.322 145.857 549.853 146.405 550.267 147.138C550.87 146.405 551.522 145.857 552.22 145.495C552.919 145.132 553.665 144.951 554.458 144.951C555.467 144.951 556.321 145.158 557.019 145.572C557.718 145.978 558.24 146.577 558.585 147.37C558.835 147.957 558.96 148.906 558.96 150.216V159H555.325V151.148C555.325 149.785 555.2 148.906 554.95 148.509C554.613 147.991 554.096 147.733 553.397 147.733C552.888 147.733 552.41 147.888 551.961 148.198C551.513 148.509 551.19 148.966 550.991 149.57C550.793 150.165 550.694 151.109 550.694 152.403V159H547.059V151.471C547.059 150.134 546.994 149.272 546.865 148.884C546.735 148.496 546.533 148.207 546.257 148.017C545.989 147.828 545.623 147.733 545.157 147.733C544.596 147.733 544.092 147.884 543.643 148.185C543.195 148.487 542.872 148.923 542.673 149.492C542.484 150.061 542.389 151.005 542.389 152.325V159H538.754V145.262ZM562.491 145.262H565.881V147.28C566.32 146.59 566.916 146.029 567.666 145.598C568.416 145.167 569.248 144.951 570.162 144.951C571.758 144.951 573.112 145.577 574.224 146.827C575.337 148.078 575.893 149.82 575.893 152.053C575.893 154.347 575.333 156.132 574.211 157.409C573.09 158.677 571.732 159.31 570.137 159.31C569.378 159.31 568.688 159.16 568.067 158.858C567.455 158.556 566.808 158.038 566.126 157.305V164.226H562.491V145.262ZM566.088 151.898C566.088 153.442 566.394 154.584 567.006 155.326C567.618 156.059 568.364 156.426 569.244 156.426C570.089 156.426 570.792 156.089 571.353 155.417C571.913 154.735 572.193 153.623 572.193 152.079C572.193 150.639 571.905 149.57 571.327 148.871C570.749 148.172 570.033 147.823 569.179 147.823C568.291 147.823 567.554 148.168 566.967 148.858C566.381 149.539 566.088 150.553 566.088 151.898ZM581.507 149.453L578.209 148.858C578.58 147.53 579.218 146.547 580.123 145.909C581.029 145.27 582.374 144.951 584.159 144.951C585.781 144.951 586.988 145.145 587.781 145.534C588.575 145.913 589.131 146.4 589.45 146.995C589.778 147.582 589.942 148.664 589.942 150.242L589.903 154.485C589.903 155.693 589.959 156.585 590.071 157.163C590.192 157.732 590.412 158.345 590.731 159H587.135C587.04 158.759 586.923 158.401 586.785 157.926C586.725 157.711 586.682 157.568 586.656 157.499C586.035 158.103 585.371 158.556 584.664 158.858C583.957 159.16 583.202 159.31 582.4 159.31C580.986 159.31 579.869 158.927 579.05 158.159C578.239 157.392 577.834 156.421 577.834 155.249C577.834 154.472 578.019 153.782 578.39 153.179C578.761 152.566 579.278 152.101 579.942 151.782C580.615 151.454 581.581 151.169 582.84 150.928C584.539 150.609 585.716 150.311 586.371 150.035V149.673C586.371 148.975 586.199 148.479 585.854 148.185C585.509 147.884 584.858 147.733 583.901 147.733C583.254 147.733 582.749 147.862 582.387 148.121C582.025 148.371 581.732 148.815 581.507 149.453ZM586.371 152.403C585.906 152.558 585.168 152.743 584.159 152.959C583.15 153.174 582.491 153.386 582.18 153.593C581.706 153.929 581.469 154.356 581.469 154.873C581.469 155.382 581.658 155.822 582.038 156.193C582.417 156.564 582.9 156.749 583.487 156.749C584.142 156.749 584.767 156.534 585.362 156.102C585.802 155.775 586.091 155.374 586.229 154.899C586.324 154.589 586.371 153.998 586.371 153.127V152.403ZM606.034 159H602.399V151.989C602.399 150.505 602.322 149.548 602.166 149.117C602.011 148.677 601.757 148.336 601.403 148.095C601.058 147.853 600.64 147.733 600.148 147.733C599.519 147.733 598.954 147.905 598.454 148.25C597.954 148.595 597.609 149.052 597.419 149.621C597.238 150.191 597.147 151.243 597.147 152.778V159H593.512V145.262H596.888V147.28C598.087 145.728 599.596 144.951 601.416 144.951C602.218 144.951 602.951 145.098 603.615 145.391C604.279 145.676 604.779 146.042 605.116 146.491C605.461 146.939 605.698 147.448 605.827 148.017C605.965 148.586 606.034 149.401 606.034 150.462V159ZM609.734 143.399V140.036H613.369V143.399H609.734ZM609.734 159V145.262H613.369V159H609.734ZM616.267 151.937C616.267 150.73 616.564 149.561 617.159 148.431C617.754 147.301 618.595 146.439 619.682 145.844C620.777 145.249 621.997 144.951 623.343 144.951C625.421 144.951 627.124 145.628 628.453 146.982C629.781 148.328 630.445 150.031 630.445 152.092C630.445 154.171 629.772 155.895 628.427 157.267C627.09 158.629 625.404 159.31 623.369 159.31C622.11 159.31 620.907 159.026 619.76 158.457C618.621 157.887 617.754 157.055 617.159 155.96C616.564 154.856 616.267 153.515 616.267 151.937ZM619.992 152.131C619.992 153.494 620.316 154.537 620.963 155.261C621.609 155.986 622.407 156.348 623.356 156.348C624.304 156.348 625.098 155.986 625.736 155.261C626.383 154.537 626.706 153.485 626.706 152.105C626.706 150.76 626.383 149.725 625.736 149C625.098 148.276 624.304 147.914 623.356 147.914C622.407 147.914 621.609 148.276 620.963 149C620.316 149.725 619.992 150.768 619.992 152.131ZM645.8 159H642.165V151.989C642.165 150.505 642.087 149.548 641.932 149.117C641.777 148.677 641.522 148.336 641.169 148.095C640.824 147.853 640.406 147.733 639.914 147.733C639.284 147.733 638.72 147.905 638.219 148.25C637.719 148.595 637.374 149.052 637.184 149.621C637.003 150.191 636.913 151.243 636.913 152.778V159H633.278V145.262H636.654V147.28C637.853 145.728 639.362 144.951 641.182 144.951C641.984 144.951 642.717 145.098 643.381 145.391C644.045 145.676 644.545 146.042 644.881 146.491C645.226 146.939 645.464 147.448 645.593 148.017C645.731 148.586 645.8 149.401 645.8 150.462V159Z" fill="white"/>
</svg>
